<svg id="visual" viewBox="0 0 900 600" width="900" height="600" xmlns="http://www.w3.org/2000/svg" xmlns:xlink="http://www.w3.org/1999/xlink" version="1.1"><rect x="0" y="0" width="900" height="600" fill="#e9e9e9"></rect><path d="M0 396L21.5 394.3C43 392.7 86 389.3 128.8 391.5C171.7 393.7 214.3 401.3 257.2 424C300 446.7 343 484.3 385.8 499.7C428.7 515 471.3 508 514.2 484.7C557 461.3 600 421.7 642.8 408C685.7 394.3 728.3 406.7 771.2 408.3C814 410 857 401 878.5 396.5L900 392L900 601L878.5 601C857 601 814 601 771.2 601C728.3 601 685.7 601 642.8 601C600 601 557 601 514.2 601C471.3 601 428.7 601 385.8 601C343 601 300 601 257.2 601C214.3 601 171.7 601 128.8 601C86 601 43 601 21.5 601L0 601Z" fill="#FF0066" stroke-linecap="round" stroke-linejoin="miter"></path></svg>