<svg id="visual" viewBox="0 0 900 600" width="900" height="600" xmlns="http://www.w3.org/2000/svg" xmlns:xlink="http://www.w3.org/1999/xlink" version="1.1"><rect x="0" y="0" width="900" height="600" fill="#e9e9e9"></rect><path d="M0 202L21.5 203.7C43 205.3 86 208.7 128.8 206.5C171.7 204.3 214.3 196.7 257.2 174C300 151.3 343 113.7 385.8 98.3C428.7 83 471.3 90 514.2 113.3C557 136.7 600 176.3 642.8 190C685.7 203.7 728.3 191.3 771.2 189.7C814 188 857 197 878.5 201.5L900 206L900 0L878.5 0C857 0 814 0 771.2 0C728.3 0 685.7 0 642.8 0C600 0 557 0 514.2 0C471.3 0 428.7 0 385.8 0C343 0 300 0 257.2 0C214.3 0 171.7 0 128.8 0C86 0 43 0 21.5 0L0 0Z" fill="#FF0066" stroke-linecap="round" stroke-linejoin="miter"></path></svg>